General
Unique ID                        : 186642969240818628842118979101517068527 (0x8C6A20DAB1F8418F92315BEDAB06B8EF)
Complete name                    : C:\Users\znf\Downloads\Torrents\Romanii.Au.Talent.S02E05.1080i.HDTV.x264-BBM\Romanii.Au.Talent.S02E05.1080i.HDTV.x264-BBM.mkv
Format                           : Matroska
Format version                   : Version 2
File size                        : 5.00 GiB
Duration                         : 1h 53mn
Overall bit rate                 : 6 287 Kbps
Writing application              : Lavf52.39.1
Writing library                  : Lavf52.39.1

Video
ID                               : 1
Format                           : MPEG-4 Visual
Format profile                   : Simple@L1
Format settings, BVOP            : No
Format settings, QPel            : No
Format settings, GMC             : No warppoints
Format settings, Matrix          : Default (H.263)
Codec ID                         : V_MPEG4/ISO/ASP
Codec ID/Info                    : Advanced Simple Profile
Duration                         : 1h 53mn
Bit rate                         : 6 034 Kbps
Width                            : 1 920 pixels
Height                           : 1 088 pixels
Display aspect ratio             : 16:9
Frame rate mode                  : Constant
Frame rate                       : 25.000 fps
Color space                      : YUV
Chroma subsampling               : 4:2:0
Bit depth                        : 8 bits
Scan type                        : Progressive
Compression mode                 : Lossy
Bits/(Pixel*Frame)               : 0.116
Stream size                      : 4.80 GiB (96%)
Writing library                  : Lavc52.37.0
Language                         : English

Audio
ID                               : 2
Format                           : MPEG Audio
Format version                   : Version 1
Format profile                   : Layer 2
Codec ID                         : A_MPEG/L2
Codec ID/Hint                    : MP2
Duration                         : 1h 53mn
Bit rate mode                    : Constant
Bit rate                         : 128 Kbps
Channel(s)                       : 2 channels
Sampling rate                    : 44.1 KHz
Compression mode                 : Lossy
Stream size                      : 104 MiB (2%)
Language                         : English